<?xml version="1.0" encoding="UTF-8" standalone="no"?>
<!-- Created with Inkscape (http://www.inkscape.org/) -->

<svg
   xmlns:dc="http://purl.org/dc/elements/1.1/"
   xmlns:cc="http://creativecommons.org/ns#"
   xmlns:rdf="http://www.w3.org/1999/02/22-rdf-syntax-ns#"
   xmlns:svg="http://www.w3.org/2000/svg"
   xmlns="http://www.w3.org/2000/svg"
   xmlns:sodipodi="http://sodipodi.sourceforge.net/DTD/sodipodi-0.dtd"
   xmlns:inkscape="http://www.inkscape.org/namespaces/inkscape"
   width="2.1815684in"
   height="0.69153881in"
   viewBox="0 0 2.1815684 0.69153881"
   version="1.1"
   id="SVGRoot"
   inkscape:version="0.92.2 2405546, 2018-03-11"
   sodipodi:docname="mushaka-logo.svg">
  <sodipodi:namedview
     id="base"
     pagecolor="#ffffff"
     bordercolor="#666666"
     borderopacity="1.0"
     inkscape:pageopacity="0.0"
     inkscape:pageshadow="2"
     inkscape:zoom="2"
     inkscape:cx="51.366611"
     inkscape:cy="-16.584692"
     inkscape:document-units="in"
     inkscape:current-layer="layer1"
     showgrid="false"
     inkscape:window-width="1542"
     inkscape:window-height="819"
     inkscape:window-x="29"
     inkscape:window-y="52"
     inkscape:window-maximized="0" />
  <defs
     id="defs815">
    <inkscape:perspective
       sodipodi:type="inkscape:persp3d"
       inkscape:vp_x="0 : 1 : 1"
       inkscape:vp_y="0 : 1000 : 0"
       inkscape:vp_z="3.4999999 : 1 : 1"
       inkscape:persp3d-origin="1.7499999 : 0.66666667 : 1"
       id="perspective1418" />
  </defs>
  <metadata
     id="metadata818">
    <rdf:RDF>
      <cc:Work
         rdf:about="">
        <dc:format>image/svg+xml</dc:format>
        <dc:type
           rdf:resource="http://purl.org/dc/dcmitype/StillImage" />
        <dc:title />
      </cc:Work>
    </rdf:RDF>
  </metadata>
  <g
     id="layer1"
     inkscape:groupmode="layer"
     inkscape:label="Layer 1"
     transform="translate(-0.64641842,-0.21382896)"
     style="display:inline">
    <text
       xml:space="preserve"
       style="font-style:normal;font-weight:normal;font-size:0.41666681px;line-height:1.25;font-family:sans-serif;letter-spacing:0px;word-spacing:0px;fill:#000000;fill-opacity:1;stroke:none;stroke-width:0.01041667"
       x="1.0052086"
       y="0.71354187"
       id="text1380"><tspan
         sodipodi:role="line"
         id="tspan1378"
         x="1.0052086"
         y="1.0821943"
         style="stroke-width:0.01041667" /></text>
    <g
       id="g1458"
       transform="translate(0.625,0.16145833)">
      <g
         aria-label="u"
         style="font-style:normal;font-variant:normal;font-weight:normal;font-stretch:normal;font-size:0.41666681px;line-height:1.25;font-family:'LCD Solid';-inkscape-font-specification:'LCD Solid';letter-spacing:0px;word-spacing:0px;fill:#e74d3c;fill-opacity:1;stroke:#545454;stroke-width:0.0104375;stroke-miterlimit:4;stroke-dasharray:none;stroke-opacity:0"
         id="text1376">
        <path
           d="m 0.46711332,0.1474704 h 0.039881 q 0.003869,5.9523e-4 0.003869,0.003571 V 0.3215776 h 0.0833334 v -0.039881 q 5.9524e-4,-0.003571 0.003571,-0.003571 h 0.039881 V 0.15104183 q 5.9524e-4,-0.003571 0.003869,-0.003571 h 0.039881 q 0.003571,5.9523e-4 0.003571,0.003571 v 0.21428578 q 0,0.003571 -0.003571,0.003571 h -0.039881 q -0.003869,0 -0.003869,-0.003571 v -0.039881 h -0.039881 v 0.039881 q 0,0.003571 -0.003571,0.003571 h -0.0833334 q -0.003869,0 -0.003869,-0.003571 v -0.039881 h -0.039881 q -0.003571,0 -0.003571,-0.003869 V 0.15104183 q 5.9524e-4,-0.003571 0.003571,-0.003571 z"
           style="font-style:normal;font-variant:normal;font-weight:normal;font-stretch:normal;font-family:'LCD Solid';-inkscape-font-specification:'LCD Solid';fill:#e74d3c;fill-opacity:1;stroke:#545454;stroke-width:0.0104375;stroke-miterlimit:4;stroke-dasharray:none;stroke-opacity:1"
           id="path964" />
      </g>
      <g
         aria-label="m"
         style="font-style:normal;font-variant:normal;font-weight:normal;font-stretch:normal;font-size:0.41666681px;line-height:1.25;font-family:'LCD Solid';-inkscape-font-specification:'LCD Solid';letter-spacing:0px;word-spacing:0px;fill:#e74d3c;fill-opacity:1;stroke:#545454;stroke-width:0.0104375;stroke-miterlimit:4;stroke-dasharray:none;stroke-opacity:0"
         id="text1384">
        <path
           d="m 0.1968752,0.15238106 h 0.083631 q 0.003571,5.9524e-4 0.003571,0.003571 v 0.039881 h 0.039881 v -0.039881 q 5.9524e-4,-0.003571 0.003571,-0.003571 h 0.039881 q 0.003869,5.9524e-4 0.003869,0.003571 v 0.039881 h 0.039881 q 0.003571,5.9523e-4 0.003571,0.003869 v 0.17053578 q 0,0.003571 -0.003571,0.003571 h -0.039881 q -0.003869,0 -0.003869,-0.003571 V 0.1997025 h -0.039881 v 0.0833334 q 0,0.003571 -0.003571,0.003571 h -0.039881 q -0.003571,0 -0.003571,-0.003571 V 0.1997025 h -0.039881 v 0.17053578 q 0,0.003571 -0.003869,0.003571 h -0.039881 q -0.003571,0 -0.003571,-0.003571 V 0.15595249 q 5.9524e-4,-0.003571 0.003571,-0.003571 z"
           style="font-style:normal;font-variant:normal;font-weight:normal;font-stretch:normal;font-family:'LCD Solid';-inkscape-font-specification:'LCD Solid';fill:#e74d3c;fill-opacity:1;stroke:#545454;stroke-width:0.0104375;stroke-miterlimit:4;stroke-dasharray:none;stroke-opacity:1"
           id="path967" />
      </g>
      <g
         aria-label="s"
         style="font-style:normal;font-variant:normal;font-weight:normal;font-stretch:normal;font-size:0.41666681px;line-height:1.25;font-family:'LCD Solid';-inkscape-font-specification:'LCD Solid';letter-spacing:0px;word-spacing:0px;fill:#e74d3c;fill-opacity:1;stroke:#545454;stroke-width:0.0104375;stroke-miterlimit:4;stroke-dasharray:none;stroke-opacity:0"
         id="text1388">
        <path
           d="M 0.78258957,0.14107158 H 0.9105658 q 0.003571,5.9523e-4 0.003571,0.003571 v 0.0404762 q 0,0.003571 -0.003571,0.003571 H 0.78258957 v 0.0401786 H 0.9105658 q 0.003571,5.9524e-4 0.003571,0.003571 v 0.0404762 h 0.0404762 q 0.003571,5.9524e-4 0.003571,0.003571 v 0.0401786 q 0,0.003571 -0.003571,0.003571 h -0.0404762 v 0.0404762 q 0,0.003571 -0.003571,0.003571 H 0.73854193 q -0.003571,0 -0.003571,-0.003571 V 0.3202383 q 5.9524e-4,-0.003571 0.003571,-0.003571 H 0.9105658 V 0.27648829 H 0.78258957 q -0.003571,0 -0.003571,-0.003571 v -0.0404762 h -0.0404762 q -0.003571,0 -0.003571,-0.003571 v -0.0401786 q 5.9524e-4,-0.003571 0.003571,-0.003571 h 0.0404762 v -0.0404762 q 2.9762e-4,-0.003571 0.003571,-0.003571 z"
           style="font-style:normal;font-variant:normal;font-weight:normal;font-stretch:normal;font-family:'LCD Solid';-inkscape-font-specification:'LCD Solid';fill:#e74d3c;fill-opacity:1;stroke:#545454;stroke-width:0.0104375;stroke-miterlimit:4;stroke-dasharray:none;stroke-opacity:1"
           id="path970" />
      </g>
      <g
         aria-label="h"
         style="font-style:normal;font-variant:normal;font-weight:normal;font-stretch:normal;font-size:0.41666681px;line-height:1.25;font-family:'LCD Solid';-inkscape-font-specification:'LCD Solid';letter-spacing:0px;word-spacing:0px;fill:#e74d3c;fill-opacity:1;stroke:#545454;stroke-width:0.0104375;stroke-miterlimit:4;stroke-dasharray:none;stroke-opacity:0"
         id="text1392">
        <path
           d="m 1.0133931,0.06250011 h 0.040476 q 0.00357,2.9762e-4 0.00357,0.0035714 v 0.12827385 h 0.040179 v -0.0404762 q 5.952e-4,-0.003571 0.00387,-0.003571 h 0.084226 q 0.00357,5.9523e-4 0.00357,0.003571 v 0.0404762 h 0.040476 q 0.00357,5.9524e-4 0.00357,0.003571 v 0.17232149 q 0,0.003571 -0.00357,0.003571 H 1.189286 q -0.00357,0 -0.00357,-0.003571 V 0.19791682 h -0.084226 v 0.0401786 q 0,0.003869 -0.00387,0.003869 h -0.040179 v 0.12827386 q 0,0.003571 -0.00357,0.003571 h -0.040476 q -0.00357,0 -0.00357,-0.003571 V 0.06607154 q 5.952e-4,-0.0035714 0.00357,-0.0035714 z"
           style="font-style:normal;font-variant:normal;font-weight:normal;font-stretch:normal;font-family:'LCD Solid';-inkscape-font-specification:'LCD Solid';fill:#e74d3c;fill-opacity:1;stroke:#545454;stroke-width:0.0104375;stroke-miterlimit:4;stroke-dasharray:none;stroke-opacity:1"
           id="path973" />
      </g>
      <g
         aria-label="k"
         style="font-style:normal;font-variant:normal;font-weight:normal;font-stretch:normal;font-size:0.41666681px;line-height:1.25;font-family:'LCD Solid';-inkscape-font-specification:'LCD Solid';letter-spacing:0px;word-spacing:0px;fill:#e74d3c;fill-opacity:1;stroke:#545454;stroke-width:0.0104375;stroke-miterlimit:4;stroke-dasharray:none;stroke-opacity:0"
         id="text1396">
        <path
           d="m 1.5599705,0.05758938 h 0.040476 q 0.00357,5.9524e-4 0.00357,0.0035714 V 0.2334823 h 0.040178 V 0.1930061 q 5.953e-4,-0.003571 0.00387,-0.003571 h 0.040179 v -0.0401786 q 5.952e-4,-0.003869 0.00357,-0.003869 h 0.040476 q 0.00357,5.9524e-4 0.00357,0.003869 v 0.0401786 q 0,0.003571 -0.00357,0.003571 h -0.040476 v 0.0404762 q 0,0.003571 -0.00357,0.003571 h -0.040179 v 0.0401786 h 0.040179 q 0.00357,5.9524e-4 0.00357,0.003869 v 0.0401786 h 0.040476 q 0.00357,5.9524e-4 0.00357,0.003571 v 0.0404762 q 0,0.003571 -0.00357,0.003571 h -0.040476 q -0.00357,0 -0.00357,-0.003571 v -0.0404762 h -0.040179 q -0.00387,0 -0.00387,-0.003571 v -0.0401786 h -0.040178 v 0.0842262 q 0,0.003571 -0.00357,0.003571 h -0.040476 q -0.00357,0 -0.00357,-0.003571 V 0.06116081 q 5.952e-4,-0.0035714 0.00357,-0.0035714 z"
           style="font-style:normal;font-variant:normal;font-weight:normal;font-stretch:normal;font-family:'LCD Solid';-inkscape-font-specification:'LCD Solid';fill:#e74d3c;fill-opacity:1;stroke:#545454;stroke-width:0.0104375;stroke-miterlimit:4;stroke-dasharray:none;stroke-opacity:1"
           id="path976" />
      </g>
      <g
         aria-label="a"
         style="font-style:normal;font-variant:normal;font-weight:normal;font-stretch:normal;font-size:0.41666681px;line-height:1.25;font-family:'LCD Solid';-inkscape-font-specification:'LCD Solid';letter-spacing:0px;word-spacing:0px;fill:#e74d3c;fill-opacity:1;stroke:#545454;stroke-width:0.0104375;stroke-miterlimit:4;stroke-dasharray:none;stroke-opacity:0"
         id="text1404">
        <path
           d="m 1.8242563,0.14717275 h 0.1273809 q 0.00357,5.9523e-4 0.00357,0.003571 v 0.0401786 h 0.040179 q 0.00357,5.9524e-4 0.00357,0.003571 V 0.3656252 q 0,0.003571 -0.00357,0.003571 h -0.171131 q -0.00357,0 -0.00357,-0.003571 v -0.0401786 h -0.040179 q -0.00357,0 -0.00357,-0.003571 V 0.2816966 q 5.952e-4,-0.003571 0.00357,-0.003571 h 0.040179 v -0.039881 q 5.953e-4,-0.003571 0.00357,-0.003571 H 1.9516372 V 0.19449419 H 1.8242563 q -0.00357,0 -0.00357,-0.003571 v -0.0401786 q 5.953e-4,-0.003571 0.00357,-0.003571 z m 0,0.13452385 v 0.0401786 H 1.9516372 V 0.2816966 Z"
           style="font-style:normal;font-variant:normal;font-weight:normal;font-stretch:normal;font-family:'LCD Solid';-inkscape-font-specification:'LCD Solid';fill:#e74d3c;fill-opacity:1;stroke:#545454;stroke-width:0.0104375;stroke-miterlimit:4;stroke-dasharray:none;stroke-opacity:1"
           id="path979" />
      </g>
      <g
         aria-label="a"
         style="font-style:normal;font-variant:normal;font-weight:normal;font-stretch:normal;font-size:0.41666681px;line-height:1.25;font-family:'LCD Solid';-inkscape-font-specification:'LCD Solid';letter-spacing:0px;word-spacing:0px;fill:#e74d3c;fill-opacity:1;stroke:#545454;stroke-width:0.0104375;stroke-miterlimit:4;stroke-dasharray:none;stroke-opacity:0"
         id="text1416">
        <path
           d="m 1.3294646,0.14717278 h 0.127381 q 0.00357,5.9523e-4 0.00357,0.003571 v 0.0401786 h 0.040179 q 0.00357,5.9524e-4 0.00357,0.003571 v 0.17113101 q 0,0.003571 -0.00357,0.003571 h -0.171131 q -0.00357,0 -0.00357,-0.003571 v -0.0401786 h -0.040179 q -0.00357,0 -0.00357,-0.003571 v -0.0401786 q 5.952e-4,-0.003571 0.00357,-0.003571 h 0.040179 v -0.039881 q 5.952e-4,-0.003571 0.00357,-0.003571 h 0.127381 v -0.0401786 h -0.127381 q -0.00357,0 -0.00357,-0.003571 v -0.0401786 q 5.952e-4,-0.003571 0.00357,-0.003571 z m 0,0.13452385 v 0.0401786 h 0.127381 v -0.0401786 z"
           style="font-style:normal;font-variant:normal;font-weight:normal;font-stretch:normal;font-family:'LCD Solid';-inkscape-font-specification:'LCD Solid';fill:#e74d3c;fill-opacity:1;stroke:#545454;stroke-width:0.0104375;stroke-miterlimit:4;stroke-dasharray:none;stroke-opacity:1"
           id="path982" />
      </g>
    </g>
    <g
       id="g1478"
       transform="translate(0.04166667)">
      <g
         aria-label="s"
         style="font-style:normal;font-variant:normal;font-weight:normal;font-stretch:normal;font-size:0.41666681px;line-height:1.25;font-family:'LCD Solid';-inkscape-font-specification:'LCD Solid';letter-spacing:0px;word-spacing:0px;fill:#e74d3c;fill-opacity:1;stroke:#545454;stroke-width:0.0104375;stroke-miterlimit:4;stroke-dasharray:none;stroke-opacity:0"
         id="text1400">
        <path
           d="m 2.6055061,0.66711323 h 0.1279763 q 0.00357,5.9524e-4 0.00357,0.003571 v 0.0404762 q 0,0.003571 -0.00357,0.003571 H 2.6055061 v 0.0401786 h 0.1279763 q 0.00357,5.9524e-4 0.00357,0.003571 v 0.0404762 H 2.77753 q 0.00357,5.9524e-4 0.00357,0.003571 v 0.0401786 q 0,0.003571 -0.00357,0.003571 h -0.040476 v 0.0404762 q 0,0.003571 -0.00357,0.003571 H 2.5614585 q -0.00357,0 -0.00357,-0.003571 v -0.0404762 q 5.952e-4,-0.003571 0.00357,-0.003571 H 2.7334824 V 0.80252994 H 2.6055061 q -0.00357,0 -0.00357,-0.003571 v -0.0404762 h -0.040476 q -0.00357,0 -0.00357,-0.003571 V 0.7147323 q 5.952e-4,-0.003571 0.00357,-0.003571 h 0.040476 v -0.0404762 q 2.976e-4,-0.003571 0.00357,-0.003571 z"
           style="font-style:normal;font-variant:normal;font-weight:normal;font-stretch:normal;font-family:'LCD Solid';-inkscape-font-specification:'LCD Solid';fill:#e74d3c;fill-opacity:1;stroke:#545454;stroke-width:0.0104375;stroke-miterlimit:4;stroke-dasharray:none;stroke-opacity:1"
           id="path937" />
      </g>
      <g
         aria-label="u"
         style="font-style:normal;font-variant:normal;font-weight:normal;font-stretch:normal;font-size:0.41666681px;line-height:1.25;font-family:'LCD Solid';-inkscape-font-specification:'LCD Solid';letter-spacing:0px;word-spacing:0px;fill:#e74d3c;fill-opacity:1;stroke:#545454;stroke-width:0.0104375;stroke-miterlimit:4;stroke-dasharray:none;stroke-opacity:0"
         id="text1408">
        <path
           d="m 1.3264884,0.67351202 h 0.039881 q 0.00387,5.9524e-4 0.00387,0.003571 v 0.17053577 h 0.083333 v -0.039881 q 5.952e-4,-0.003571 0.00357,-0.003571 h 0.039881 V 0.67708345 q 5.952e-4,-0.003571 0.00387,-0.003571 h 0.039881 q 0.00357,5.9524e-4 0.00357,0.003571 v 0.21428579 q 0,0.003571 -0.00357,0.003571 h -0.039881 q -0.00387,0 -0.00387,-0.003571 v -0.039881 h -0.039881 v 0.039881 q 0,0.003571 -0.00357,0.003571 h -0.083333 q -0.00387,0 -0.00387,-0.003571 v -0.039881 h -0.039881 q -0.00357,0 -0.00357,-0.003869 V 0.67708345 q 5.952e-4,-0.003571 0.00357,-0.003571 z"
           style="font-style:normal;font-variant:normal;font-weight:normal;font-stretch:normal;font-family:'LCD Solid';-inkscape-font-specification:'LCD Solid';fill:#e74d3c;fill-opacity:1;stroke:#545454;stroke-width:0.0104375;stroke-miterlimit:4;stroke-dasharray:none;stroke-opacity:1"
           id="path940" />
      </g>
      <g
         aria-label="n"
         style="font-style:normal;font-variant:normal;font-weight:normal;font-stretch:normal;font-size:0.41666681px;line-height:1.25;font-family:'LCD Solid';-inkscape-font-specification:'LCD Solid';letter-spacing:0px;word-spacing:0px;fill:#e74d3c;fill-opacity:1;stroke:#545454;stroke-width:0.0104375;stroke-miterlimit:4;stroke-dasharray:none;stroke-opacity:0"
         id="text1412">
        <path
           d="m 2.2903276,0.67321434 h 0.039881 q 0.00387,5.9524e-4 0.00387,0.003571 v 0.039881 h 0.039881 v -0.039881 q 5.952e-4,-0.003571 0.00357,-0.003571 h 0.083333 q 0.00387,5.9524e-4 0.00387,0.003571 v 0.039881 h 0.039881 q 0.00357,5.9524e-4 0.00357,0.003869 v 0.17053577 q 0,0.003571 -0.00357,0.003571 h -0.039881 q -0.00387,0 -0.00387,-0.003571 V 0.72053579 H 2.37753 v 0.039881 q 0,0.003571 -0.00357,0.003571 h -0.039881 v 0.12708338 q 0,0.003571 -0.00387,0.003571 h -0.039881 q -0.00357,0 -0.00357,-0.003571 V 0.67678577 q 5.952e-4,-0.003571 0.00357,-0.003571 z"
           style="font-style:normal;font-variant:normal;font-weight:normal;font-stretch:normal;font-family:'LCD Solid';-inkscape-font-specification:'LCD Solid';fill:#e74d3c;fill-opacity:1;stroke:#545454;stroke-width:0.0104375;stroke-miterlimit:4;stroke-dasharray:none;stroke-opacity:1"
           id="path943" />
      </g>
      <g
         aria-label="o"
         style="font-style:normal;font-variant:normal;font-weight:normal;font-stretch:normal;font-size:0.41666681px;line-height:1.25;font-family:'LCD Solid';-inkscape-font-specification:'LCD Solid';letter-spacing:0px;word-spacing:0px;fill:#e74d3c;fill-opacity:1;stroke:#545454;stroke-width:0.0104375;stroke-miterlimit:4;stroke-dasharray:none;stroke-opacity:0"
         id="text1422">
        <path
           d="m 2.0690479,0.67351208 h 0.1267857 q 0.00387,5.9524e-4 0.00387,0.003571 v 0.039881 h 0.039881 q 0.00357,5.9524e-4 0.00357,0.003869 v 0.12678575 q 0,0.003869 -0.00357,0.003869 h -0.039881 v 0.039881 q 0,0.003571 -0.00387,0.003571 H 2.0690479 q -0.00387,0 -0.00387,-0.003571 v -0.039881 h -0.039881 q -0.00357,0 -0.00357,-0.003869 V 0.72083353 q 5.953e-4,-0.003869 0.00357,-0.003869 h 0.039881 v -0.039881 q 5.953e-4,-0.003571 0.00387,-0.003571 z m 0,0.0473214 V 0.84761928 H 2.1958336 V 0.72083353 Z"
           style="font-style:normal;font-variant:normal;font-weight:normal;font-stretch:normal;font-family:'LCD Solid';-inkscape-font-specification:'LCD Solid';fill:#e74d3c;fill-opacity:1;stroke:#545454;stroke-width:0.0104375;stroke-miterlimit:4;stroke-dasharray:none;stroke-opacity:1"
           id="path946" />
      </g>
      <g
         aria-label="i"
         style="font-style:normal;font-variant:normal;font-weight:normal;font-stretch:normal;font-size:0.41666681px;line-height:1.25;font-family:'LCD Solid';-inkscape-font-specification:'LCD Solid';letter-spacing:0px;word-spacing:0px;fill:#e74d3c;fill-opacity:1;stroke:#545454;stroke-width:0.0104375;stroke-miterlimit:4;stroke-dasharray:none;stroke-opacity:0"
         id="text1426">
        <path
           d="m 1.8934525,0.58273824 h 0.040476 q 0.00357,5.9524e-4 0.00357,0.003571 v 0.0404762 q 0,0.003571 -0.00357,0.003571 h -0.040476 q -0.00357,0 -0.00357,-0.003571 v -0.0404762 q 5.952e-4,-0.003571 0.00357,-0.003571 z m -0.044048,0.0880953 h 0.084524 q 0.00357,5.9524e-4 0.00357,0.003571 v 0.17232149 h 0.040179 q 0.00387,5.9523e-4 0.00387,0.003571 v 0.0404762 q 0,0.003571 -0.00387,0.003571 H 1.8494049 q -0.00357,0 -0.00357,-0.003571 v -0.0404762 q 5.952e-4,-0.003571 0.00357,-0.003571 h 0.040476 V 0.71845257 h -0.040476 q -0.00357,0 -0.00357,-0.003869 v -0.0401786 q 5.952e-4,-0.003571 0.00357,-0.003571 z"
           style="font-style:normal;font-variant:normal;font-weight:normal;font-stretch:normal;font-family:'LCD Solid';-inkscape-font-specification:'LCD Solid';fill:#e74d3c;fill-opacity:1;stroke:#545454;stroke-width:0.0104375;stroke-miterlimit:4;stroke-dasharray:none;stroke-opacity:1"
           id="path949" />
      </g>
      <g
         aria-label="t"
         style="font-style:normal;font-variant:normal;font-weight:normal;font-stretch:normal;font-size:0.41666681px;line-height:1.25;font-family:'LCD Solid';-inkscape-font-specification:'LCD Solid';letter-spacing:0px;word-spacing:0px;fill:#e74d3c;fill-opacity:1;stroke:#545454;stroke-width:0.0104375;stroke-miterlimit:4;stroke-dasharray:none;stroke-opacity:0"
         id="text1430">
        <path
           d="m 1.6257443,0.58273824 h 0.040476 q 0.00387,5.9524e-4 0.00387,0.003571 v 0.0845238 h 0.040179 q 0.00387,5.9524e-4 0.00387,0.003869 v 0.0401786 q 0,0.003869 -0.00387,0.003869 h -0.040179 v 0.12857147 h 0.084226 v -0.0404762 q 5.953e-4,-0.003869 0.00387,-0.003869 h 0.040179 q 0.00387,5.9524e-4 0.00387,0.003869 v 0.0404762 q 0,0.003571 -0.00387,0.003571 h -0.040179 v 0.0404762 q 0,0.003571 -0.00387,0.003571 h -0.084226 q -0.00387,0 -0.00387,-0.003571 v -0.0404762 h -0.040476 q -0.00357,0 -0.00357,-0.003571 V 0.71875019 h -0.040476 q -0.00357,0 -0.00357,-0.003869 v -0.0401786 q 5.952e-4,-0.003869 0.00357,-0.003869 h 0.040476 v -0.0845238 q 5.953e-4,-0.003571 0.00357,-0.003571 z"
           style="font-style:normal;font-variant:normal;font-weight:normal;font-stretch:normal;font-family:'LCD Solid';-inkscape-font-specification:'LCD Solid';fill:#e74d3c;fill-opacity:1;stroke:#545454;stroke-width:0.0104375;stroke-miterlimit:4;stroke-dasharray:none;stroke-opacity:1"
           id="path952" />
      </g>
      <g
         aria-label="l"
         style="font-style:normal;font-variant:normal;font-weight:normal;font-stretch:normal;font-size:0.41666681px;line-height:1.25;font-family:'LCD Solid';-inkscape-font-specification:'LCD Solid';letter-spacing:0px;word-spacing:0px;fill:#e74d3c;fill-opacity:1;stroke:#545454;stroke-width:0.0104375;stroke-miterlimit:4;stroke-dasharray:none;stroke-opacity:0"
         id="text1434">
        <path
           d="m 1.1561014,0.58854179 h 0.084524 q 0.00357,5.9524e-4 0.00357,0.003571 v 0.26041676 h 0.040179 q 0.00387,5.9524e-4 0.00387,0.003571 v 0.0404762 q 0,0.003571 -0.00387,0.003571 H 1.1561014 q -0.00357,0 -0.00357,-0.003571 v -0.0404762 q 5.952e-4,-0.003571 0.00357,-0.003571 h 0.040476 V 0.63616086 h -0.040476 q -0.00357,0 -0.00357,-0.003571 v -0.0404762 q 5.952e-4,-0.003571 0.00357,-0.003571 z"
           style="font-style:normal;font-variant:normal;font-weight:normal;font-stretch:normal;font-family:'LCD Solid';-inkscape-font-specification:'LCD Solid';fill:#e74d3c;fill-opacity:1;stroke:#545454;stroke-width:0.0104375;stroke-miterlimit:4;stroke-dasharray:none;stroke-opacity:1"
           id="path955" />
      </g>
      <g
         aria-label="o"
         style="font-style:normal;font-variant:normal;font-weight:normal;font-stretch:normal;font-size:0.41666681px;line-height:1.25;font-family:'LCD Solid';-inkscape-font-specification:'LCD Solid';letter-spacing:0px;word-spacing:0px;fill:#e74d3c;fill-opacity:1;stroke:#545454;stroke-width:0.0104375;stroke-miterlimit:4;stroke-dasharray:none;stroke-opacity:0"
         id="text1438">
        <path
           d="M 0.92842294,0.67351202 H 1.0552087 q 0.00387,5.9524e-4 0.00387,0.003571 v 0.039881 h 0.039881 q 0.00357,5.9524e-4 0.00357,0.003869 v 0.12678575 q 0,0.003869 -0.00357,0.003869 h -0.039881 v 0.039881 q 0,0.003571 -0.00387,0.003571 H 0.92842294 q -0.003869,0 -0.003869,-0.003571 v -0.039881 h -0.039881 q -0.003571,0 -0.003571,-0.003869 V 0.72083347 q 5.9523e-4,-0.003869 0.003571,-0.003869 h 0.039881 v -0.039881 q 5.9524e-4,-0.003571 0.003869,-0.003571 z m 0,0.0473214 V 0.84761922 H 1.0552087 V 0.72083347 Z"
           style="font-style:normal;font-variant:normal;font-weight:normal;font-stretch:normal;font-family:'LCD Solid';-inkscape-font-specification:'LCD Solid';fill:#e74d3c;fill-opacity:1;stroke:#545454;stroke-width:0.0104375;stroke-miterlimit:4;stroke-dasharray:none;stroke-opacity:1"
           id="path958" />
      </g>
      <g
         aria-label="s"
         style="font-style:normal;font-variant:normal;font-weight:normal;font-stretch:normal;font-size:0.41666681px;line-height:1.25;font-family:'LCD Solid';-inkscape-font-specification:'LCD Solid';letter-spacing:0px;word-spacing:0px;fill:#e74d3c;fill-opacity:1;stroke:#545454;stroke-width:0.0104375;stroke-miterlimit:4;stroke-dasharray:none;stroke-opacity:0"
         id="text1442">
        <path
           d="M 0.65758957,0.66711329 H 0.7855658 q 0.003571,5.9524e-4 0.003571,0.003571 v 0.0404762 q 0,0.003571 -0.003571,0.003571 H 0.65758957 v 0.0401786 H 0.7855658 q 0.003571,5.9524e-4 0.003571,0.003571 v 0.0404762 h 0.0404762 q 0.003571,5.9524e-4 0.003571,0.003571 v 0.0401786 q 0,0.003571 -0.003571,0.003571 h -0.0404762 v 0.0404762 q 0,0.003571 -0.003571,0.003571 H 0.61354193 q -0.003571,0 -0.003571,-0.003571 v -0.0404762 q 5.9524e-4,-0.003571 0.003571,-0.003571 H 0.7855658 V 0.80253 H 0.65758957 q -0.003571,0 -0.003571,-0.003571 v -0.0404762 h -0.0404762 q -0.003571,0 -0.003571,-0.003571 v -0.0401786 q 5.9524e-4,-0.003571 0.003571,-0.003571 h 0.0404762 v -0.0404762 q 2.9762e-4,-0.003571 0.003571,-0.003571 z"
           style="font-style:normal;font-variant:normal;font-weight:normal;font-stretch:normal;font-family:'LCD Solid';-inkscape-font-specification:'LCD Solid';fill:#e74d3c;fill-opacity:1;stroke:#545454;stroke-width:0.0104375;stroke-miterlimit:4;stroke-dasharray:none;stroke-opacity:1"
           id="path961" />
      </g>
    </g>
  </g>
</svg>
